<?xml version="1.0" standalone="no"?>
<!DOCTYPE svg PUBLIC "-//W3C//DTD SVG 20010904//EN"
 "http://www.w3.org/TR/2001/REC-SVG-20010904/DTD/svg10.dtd">
<svg version="1.0" xmlns="http://www.w3.org/2000/svg"
 width="1264.000000pt" height="1264.000000pt" viewBox="0 0 1264.000000 1264.000000"
 preserveAspectRatio="xMidYMid meet">
<metadata>
Created by potrace 1.14, written by Peter Selinger 2001-2017
</metadata>
<g transform="translate(0.000000,1264.000000) scale(0.100000,-0.100000)"
fill="#000000" stroke="none">
<path d="M6197 12634 c-1 -1 -72 -4 -157 -8 -231 -9 -327 -17 -550 -47 -200
-27 -537 -89 -655 -120 -22 -6 -48 -13 -58 -15 -10 -1 -84 -22 -165 -45 -526
-149 -1011 -355 -1490 -634 -467 -271 -929 -636 -1336 -1054 -149 -154 -137
-140 -261 -286 -465 -546 -809 -1116 -1076 -1783 -83 -205 -229 -662 -254
-791 -2 -9 -8 -36 -15 -61 -7 -25 -13 -52 -15 -60 -2 -8 -13 -62 -25 -120 -29
-137 -26 -122 -54 -300 -27 -169 -33 -212 -41 -310 -4 -36 -8 -75 -10 -88 -28
-173 -27 -949 1 -1207 8 -71 42 -328 54 -409 70 -468 259 -1096 470 -1561 43
-96 185 -381 213 -430 13 -22 36 -62 51 -90 63 -112 80 -141 148 -248 165
-262 358 -523 566 -767 114 -133 500 -525 597 -607 28 -23 64 -53 80 -68 194
-170 588 -457 815 -593 463 -276 870 -463 1335 -612 290 -93 281 -90 302 -95
10 -2 83 -19 163 -39 167 -40 366 -81 472 -97 207 -30 240 -35 335 -45 35 -3
75 -8 90 -10 218 -26 1042 -26 1182 1 9 1 51 6 94 10 43 3 86 8 95 9 9 2 44 7
77 11 32 4 68 9 80 11 11 2 40 7 65 10 25 3 52 7 60 9 8 2 31 7 50 10 19 3 49
8 65 11 321 54 834 206 1215 360 597 242 1241 635 1710 1043 155 135 177 155
311 287 120 116 295 303 384 409 38 44 71 82 74 85 11 8 205 261 254 330 129
183 314 469 359 555 8 17 39 73 68 125 127 226 287 581 390 865 113 312 242
802 285 1080 18 120 35 236 40 280 3 28 8 64 10 80 11 80 18 166 31 372 7 109
7 560 0 668 -9 136 -17 238 -22 280 -2 22 -7 63 -9 90 -3 28 -11 86 -16 130
-6 44 -13 96 -15 115 -24 196 -132 669 -204 895 -199 629 -448 1153 -793 1667
-85 126 -267 379 -287 398 -3 3 -48 57 -100 120 -93 114 -126 152 -250 284
-256 273 -617 592 -895 791 -31 22 -61 45 -68 50 -45 38 -476 315 -491 315 -2
0 -43 23 -92 51 -49 28 -150 82 -224 119 -559 280 -1085 456 -1725 576 -22 4
-42 8 -45 9 -3 0 -30 5 -60 9 -30 4 -64 10 -75 11 -10 2 -60 9 -110 15 -49 6
-103 13 -120 15 -31 4 -117 12 -220 20 -143 12 -599 26 -608 19z m248 -128
c22 -1 32 -26 135 -353 30 -95 57 -173 60 -173 3 0 60 110 125 245 l120 245
95 -5 c101 -6 133 -12 126 -23 -2 -4 -7 -52 -11 -107 -4 -55 -8 -116 -10 -135
-2 -19 -6 -75 -10 -125 -3 -49 -8 -110 -10 -135 -2 -25 -7 -85 -10 -135 -4
-49 -9 -93 -11 -96 -2 -3 -30 -4 -61 -2 -32 2 -71 5 -88 6 -25 2 -30 7 -28 27
8 138 22 330 28 385 l4 40 -27 -55 c-27 -55 -78 -165 -143 -308 l-33 -73 -70
5 c-38 3 -73 9 -77 13 -4 4 -24 67 -45 138 -20 72 -43 150 -50 175 -31 108
-42 136 -44 110 -1 -14 -3 -41 -5 -60 -4 -42 -12 -144 -21 -260 -7 -98 -8
-100 -33 -95 -10 2 -45 5 -77 6 -79 3 -82 4 -78 47 1 20 5 64 8 97 5 64 16
204 21 270 2 22 6 81 10 130 9 116 13 165 14 193 1 22 2 22 89 16 48 -4 96 -7
107 -8z m-940 -134 c8 -45 9 -65 1 -71 -6 -4 -62 -16 -124 -25 -139 -21 -142
-22 -136 -49 2 -12 7 -38 10 -57 11 -64 14 -69 37 -64 12 2 36 6 52 9 17 3 44
7 60 10 17 3 47 8 68 11 20 4 37 3 38 -2 0 -5 2 -18 5 -29 15 -73 16 -105 3
-106 -8 0 -22 -2 -32 -4 -25 -5 -150 -26 -174 -29 -21 -3 -21 -3 -9 -76 5 -30
9 -62 10 -70 1 -18 44 -17 161 5 76 13 113 16 118 8 3 -4 8 -29 12 -53 3 -25
8 -52 11 -62 5 -16 -3 -20 -81 -33 -16 -3 -39 -7 -50 -9 -11 -2 -42 -7 -68
-10 -50 -8 -57 -9 -142 -25 -118 -24 -113 -25 -121 27 -4 26 -8 56 -10 67 -17
85 -73 423 -80 475 -2 19 -6 42 -9 50 -2 8 -7 36 -10 63 -5 35 -3 47 7 48 7 0
22 2 33 4 46 8 102 17 130 22 17 2 73 12 125 21 52 10 108 18 124 17 29 0 30
-3 41 -63z m1940 29 l70 -17 -3 -33 c-1 -18 -23 -121 -47 -227 -25 -107 -45
-211 -45 -230 0 -52 27 -91 77 -110 92 -35 169 11 187 112 3 16 10 44 15 62 5
17 8 32 6 32 -3 0 0 11 5 26 6 14 12 39 15 55 3 17 15 70 26 117 11 48 22 95
24 106 3 10 7 21 9 23 6 6 158 -26 168 -35 9 -9 -96 -471 -117 -516 -48 -102
-135 -157 -253 -162 -205 -8 -355 121 -347 301 1 28 26 155 55 283 42 185 56
232 69 231 9 0 48 -8 86 -18z m-2805 -163 c5 -13 16 -48 24 -78 61 -214 138
-474 141 -480 3 -4 53 7 112 25 60 18 111 30 116 26 16 -15 41 -123 29 -129
-17 -11 -391 -116 -395 -111 -4 5 -159 538 -187 643 -11 38 -17 73 -15 77 3 3
18 9 35 12 35 8 35 7 80 24 47 17 49 16 60 -9z m3687 -85 c2 -5 -38 -128 -88
-273 -50 -146 -92 -274 -93 -284 -1 -16 18 -27 104 -57 95 -34 105 -39 103
-61 -4 -32 -33 -108 -42 -108 -11 0 -384 129 -389 135 -3 2 21 78 52 167 32
90 58 168 60 173 1 6 30 92 65 192 l63 181 81 -28 c45 -15 83 -32 84 -37z
m-4072 -82 c77 -31 135 -121 140 -215 6 -115 -61 -198 -205 -256 -44 -18 -80
-33 -80 -34 0 -1 22 -58 50 -126 27 -68 49 -124 47 -125 -32 -19 -162 -64
-168 -58 -4 4 -22 44 -39 88 -17 44 -38 94 -45 110 -8 17 -41 100 -75 185 -34
85 -65 164 -70 175 -12 25 -50 125 -50 129 0 5 195 85 284 117 83 29 154 32
211 10z m4535 -88 c41 -20 104 -49 140 -66 36 -16 92 -42 125 -57 33 -15 81
-37 107 -49 l46 -22 -28 -61 c-16 -33 -31 -62 -33 -64 -3 -3 -45 13 -93 35
l-89 40 -29 -62 c-16 -34 -71 -154 -122 -267 -52 -112 -98 -208 -102 -212 -10
-10 -162 57 -162 71 0 8 23 60 143 321 14 30 43 94 65 141 l39 85 -84 39 c-46
21 -86 42 -88 46 -3 3 7 34 22 68 30 70 22 69 143 14z m-5216 -281 c132 -59
226 -194 239 -341 18 -216 -180 -416 -405 -407 -280 11 -453 304 -332 561 39
84 161 179 261 205 63 15 182 6 237 -18z m5913 -84 c14 -11 26 12 -197 -378
-83 -146 -155 -269 -160 -274 -6 -6 -88 33 -148 72 -15 10 -21 -2 198 380
l162 283 66 -37 c37 -20 73 -41 79 -46z m-2857 -72 c64 -4 133 -8 155 -11 202
-21 257 -28 330 -41 17 -3 41 -7 55 -9 24 -3 124 -19 185 -30 73 -14 361 -87
470 -120 508 -153 1033 -403 1450 -693 87 -60 295 -214 335 -248 192 -163 269
-233 405 -369 88 -88 176 -178 196 -200 57 -65 202 -238 229 -274 302 -399
493 -717 665 -1106 134 -304 225 -571 304 -895 45 -183 42 -168 75 -375 25
-147 30 -184 41 -295 4 -30 8 -73 10 -95 23 -215 23 -716 0 -930 -2 -22 -7
-65 -10 -95 -71 -711 -320 -1463 -693 -2095 -133 -224 -370 -561 -487 -691 -5
-6 -35 -40 -65 -75 -217 -253 -483 -505 -756 -717 -95 -75 -412 -292 -509
-349 -649 -385 -1370 -631 -2070 -708 -33 -4 -73 -9 -90 -11 -16 -2 -68 -6
-115 -10 -47 -3 -103 -7 -125 -9 -55 -6 -504 -6 -590 0 -62 4 -115 8 -245 20
-346 32 -758 121 -1133 246 -302 101 -736 297 -937 424 -22 14 -42 25 -45 25
-15 0 -394 251 -470 312 -5 5 -39 31 -75 59 -124 95 -192 153 -309 258 -187
170 -392 384 -536 561 -20 25 -43 54 -52 64 -124 151 -321 441 -438 646 -191
332 -407 833 -485 1125 -60 224 -104 410 -126 530 -9 50 -18 99 -20 110 -2 11
-7 45 -10 75 -3 30 -7 57 -9 60 -2 3 -6 39 -10 80 -4 41 -8 77 -10 80 -2 3 -6
54 -10 114 -4 60 -9 132 -11 160 -5 66 -4 505 1 576 6 89 15 202 20 240 2 19
6 62 10 95 3 33 8 67 10 75 2 8 6 38 10 65 8 69 22 153 46 270 111 541 316
1085 589 1560 129 225 394 604 531 760 14 17 64 73 110 125 45 52 144 155 219
229 567 561 1229 973 1978 1232 184 63 496 150 622 173 14 2 66 12 115 21 50
10 101 19 115 21 14 2 39 6 55 9 55 9 189 25 255 31 36 3 76 7 90 10 14 2 86
7 160 10 74 4 136 7 137 8 5 4 360 -3 463 -8z m-3850 -244 c19 -26 39 -50 45
-54 5 -4 7 -9 5 -11 -3 -2 -50 -39 -105 -82 -55 -42 -102 -81 -103 -86 -4 -10
74 -119 84 -119 7 0 117 84 154 118 14 12 30 22 35 22 13 0 85 -92 85 -108 0
-5 -6 -12 -12 -15 -7 -3 -49 -34 -94 -69 l-81 -64 52 -65 51 -66 104 83 c58
46 108 84 112 84 8 0 88 -100 88 -110 0 -4 -26 -27 -57 -51 -32 -23 -110 -85
-175 -136 -66 -53 -122 -91 -130 -87 -7 3 -43 44 -79 92 -37 48 -137 177 -223
286 -86 110 -156 202 -156 205 1 7 352 281 360 280 3 0 21 -21 40 -47z m7257
-54 c70 -56 139 -115 154 -132 109 -119 82 -291 -57 -372 -37 -22 -60 -28
-108 -28 -74 0 -115 18 -210 90 l-68 53 -85 -105 -84 -105 -27 20 c-15 10 -47
36 -71 58 l-44 39 234 292 c128 161 235 292 237 292 2 0 60 -46 129 -102z
m-7702 -407 c86 -40 149 -134 148 -223 -1 -68 -36 -132 -115 -212 l-69 -69 58
-61 c32 -34 74 -78 92 -98 l34 -37 -40 -38 c-22 -21 -52 -49 -67 -63 l-27 -24
-55 59 c-49 53 -234 249 -405 429 l-56 60 102 98 c125 120 168 155 220 179 51
24 129 24 180 0z m8238 -41 c31 -33 57 -63 57 -66 0 -4 -17 -23 -38 -43 -22
-20 -98 -92 -170 -160 -141 -133 -158 -154 -166 -197 -10 -56 59 -143 115
-146 70 -3 89 11 324 236 l120 115 65 -65 65 -65 -95 -91 c-224 -213 -278
-260 -328 -285 -135 -66 -298 -8 -395 140 -62 95 -69 189 -21 284 21 40 64 89
167 186 77 73 158 151 181 174 22 22 46 41 52 42 6 1 36 -26 67 -59z m582
-637 c22 -32 64 -92 94 -133 73 -102 90 -140 97 -208 5 -47 2 -68 -15 -107
-61 -138 -205 -178 -352 -98 -7 4 -36 -55 -109 -219 -19 -43 -38 -77 -41 -78
-3 0 -31 36 -62 80 l-57 81 70 142 c38 78 70 147 70 153 0 6 -6 16 -12 22 -10
7 -44 -11 -126 -69 -62 -43 -115 -79 -117 -79 -2 0 -27 33 -55 74 l-50 75 308
214 c169 119 309 214 312 212 3 -2 23 -30 45 -62z m-9710 -138 c263 -216 442
-352 452 -343 6 5 40 45 74 89 35 43 67 79 73 79 6 0 32 -19 58 -43 l48 -42
-121 -150 c-66 -82 -126 -156 -133 -163 -10 -10 -53 20 -227 158 -118 94 -223
179 -234 188 -11 9 -43 35 -70 56 -28 22 -54 43 -59 47 -7 7 91 148 104 148 3
1 19 -10 35 -24z m10157 -523 c26 -48 63 -115 83 -150 40 -73 63 -152 58 -202
-14 -123 -140 -221 -263 -207 -91 11 -151 59 -220 177 -22 38 -43 70 -46 70
-6 0 -135 -70 -154 -84 -27 -20 -60 -36 -72 -36 -7 0 -32 34 -55 75 l-41 75
31 19 c61 37 621 351 627 351 3 0 26 -40 52 -88z m-10332 -36 c80 -14 159 -27
175 -30 56 -9 210 -36 231 -40 12 -2 39 -7 60 -10 67 -10 94 -17 94 -24 -1 -4
-14 -29 -30 -57 -16 -27 -34 -60 -39 -72 -14 -31 -20 -33 -92 -19 -75 14 -65
21 -122 -84 -17 -30 -41 -72 -54 -92 -31 -51 -29 -66 17 -113 22 -22 40 -44
40 -50 0 -5 -21 -45 -46 -88 l-45 -77 -101 117 c-137 161 -127 149 -281 331
l-138 162 53 93 52 94 41 -8 c22 -4 105 -19 185 -33z m-475 -577 c30 -11 55
-26 55 -32 0 -7 -20 -65 -46 -131 -25 -65 -43 -120 -41 -122 1 -2 33 -15 70
-29 l67 -25 11 27 c6 16 24 64 41 108 16 44 32 83 36 87 4 4 27 -2 51 -12 24
-11 49 -20 57 -20 26 0 23 -18 -21 -129 l-44 -112 27 -10 c104 -40 126 -48
128 -46 2 2 24 57 49 122 26 66 49 123 53 127 8 7 132 -40 132 -51 0 -7 -11
-35 -95 -256 -31 -82 -61 -154 -66 -159 -4 -5 -155 48 -354 124 -388 150 -356
127 -317 225 10 28 44 114 73 192 30 79 59 143 66 143 7 0 37 -9 68 -21z
m11036 -74 c52 -18 124 -67 165 -113 27 -31 67 -110 85 -166 19 -64 7 -192
-25 -257 -121 -246 -460 -296 -638 -95 -64 71 -107 192 -102 288 11 248 274
423 515 343z m-10980 -591 c178 -52 283 -194 273 -370 -3 -50 -84 -367 -97
-381 -3 -2 -101 23 -218 57 -193 56 -466 136 -495 145 -15 4 65 287 102 362
44 90 131 165 224 194 44 13 154 10 211 -7z m11303 -246 c111 -34 196 -212
168 -358 -12 -66 -36 -107 -85 -144 -68 -50 -73 -48 -97 55 l-21 92 25 24 c14
13 26 27 27 31 0 4 2 16 4 27 5 24 -23 85 -39 86 -6 0 -19 2 -28 4 -10 2 -28
-5 -42 -16 -23 -18 -32 -45 -42 -124 -13 -106 -27 -171 -44 -204 -46 -92 -175
-125 -278 -72 -85 43 -144 167 -143 297 0 76 23 135 71 181 33 32 86 60 96 50
3 -2 14 -44 25 -91 l21 -86 -31 -26 c-24 -20 -31 -34 -31 -60 0 -86 65 -133
117 -84 23 21 38 83 47 190 3 36 9 76 13 90 31 112 149 173 267 138z m-11629
-563 c116 -19 226 -37 245 -40 93 -15 241 -43 243 -46 2 -2 -4 -43 -13 -90
-13 -76 -17 -86 -35 -83 -26 3 -83 13 -115 18 -95 17 -578 98 -592 99 -10 1
-18 1 -18 2 2 3 29 164 30 173 0 8 8 10 23 7 12 -3 116 -21 232 -40z m11880
-170 c3 -22 7 -53 10 -70 2 -16 7 -52 10 -80 4 -27 10 -77 15 -110 21 -140 22
-152 8 -152 -7 0 -41 -3 -74 -7 l-62 -8 -8 74 c-4 40 -8 75 -9 78 -1 3 -5 31
-10 64 l-8 58 -61 -7 c-33 -4 -67 -8 -75 -8 -10 0 -12 -14 -7 -61 9 -82 16
-136 21 -163 2 -13 1 -23 -3 -24 -4 0 -16 -2 -27 -4 -90 -16 -103 -16 -108 2
-3 10 -11 64 -18 121 l-13 103 -56 -6 c-30 -3 -64 -7 -75 -9 -11 -3 -23 -5
-28 -5 -4 -1 -5 -13 -3 -28 3 -16 7 -50 11 -78 3 -27 9 -76 14 -108 4 -32 5
-59 2 -62 -4 -2 -36 -6 -73 -10 l-66 -7 -7 54 c-5 29 -9 62 -10 73 -2 11 -8
58 -15 105 -7 47 -13 94 -15 105 -16 118 -16 122 -3 122 20 1 121 14 138 18 8
2 40 7 70 10 30 4 84 10 120 15 36 5 88 12 115 16 28 3 102 14 165 23 63 10
118 15 122 12 4 -4 10 -24 13 -46z m-11645 -1199 c141 -46 177 -236 64 -336
-134 -117 -339 -8 -322 171 12 121 141 203 258 165z m11317 -22 c44 -25 93
-105 93 -152 0 -157 -155 -257 -292 -186 -117 60 -139 225 -41 316 64 61 158
70 240 22z m-11253 -504 c53 -26 78 -62 84 -121 10 -109 -92 -192 -196 -158
-64 20 -100 66 -106 136 -5 63 41 132 104 156 31 11 75 6 114 -13z m11171 -6
c62 -40 83 -127 49 -199 -48 -102 -197 -110 -261 -13 -56 84 -14 205 82 231
32 9 103 -1 130 -19z m-11007 -427 c18 -18 26 -39 30 -76 4 -48 2 -53 -32 -87
-34 -34 -39 -36 -87 -32 -85 9 -130 82 -99 159 30 70 133 90 188 36z m10831
18 c31 -15 61 -69 61 -107 0 -33 -36 -87 -66 -98 -45 -18 -90 -12 -123 16
-107 90 3 254 128 189z m-10575 -699 c65 -30 119 -84 154 -155 23 -48 27 -68
27 -146 0 -73 -4 -97 -22 -130 -28 -52 -73 -105 -88 -105 -7 0 -24 33 -39 74
l-27 74 19 36 c23 42 21 88 -4 141 -49 103 -197 111 -297 16 -45 -43 -56 -80
-44 -144 8 -38 18 -55 50 -82 22 -19 50 -35 61 -35 17 0 26 -15 48 -76 16 -42
26 -80 23 -84 -6 -9 -60 -5 -112 9 -167 46 -270 283 -193 445 75 158 287 235
444 162z m10261 -360 c145 -66 217 -200 186 -348 -6 -29 -41 -112 -76 -185
l-65 -132 -38 17 c-20 10 -134 67 -252 127 -118 60 -231 117 -252 126 l-36 17
68 134 c79 156 137 224 222 257 69 28 166 23 243 -13z m-9980 -220 c168 -78
244 -281 165 -442 -86 -176 -305 -244 -465 -145 -59 36 -104 87 -134 150 -22
47 -26 70 -26 141 0 70 4 93 24 133 84 163 279 236 436 163z m9518 -241 c17
-12 14 -19 -47 -111 l-65 -98 50 -33 c28 -19 54 -33 59 -31 5 2 33 40 62 85
l53 82 48 -31 c26 -17 47 -34 47 -38 0 -4 -22 -42 -50 -84 -27 -42 -50 -80
-50 -85 0 -4 25 -25 55 -45 l55 -36 65 100 65 101 48 -32 c26 -18 48 -33 50
-35 6 -4 -14 -37 -113 -189 l-95 -145 -58 38 c-31 22 -152 101 -269 176 l-212
137 73 112 c40 62 88 135 107 164 l34 51 35 -19 c19 -11 43 -26 53 -34z m-244
-344 l35 -30 -52 -67 -51 -67 128 -101 c71 -55 160 -126 199 -156 39 -30 71
-59 72 -63 0 -11 -82 -117 -91 -117 -4 0 -76 54 -160 121 -85 67 -167 131
-182 143 -16 11 -35 27 -42 34 -8 6 -17 12 -22 12 -4 -1 -30 -30 -57 -65 l-48
-65 -48 38 c-47 36 -48 37 -32 62 8 14 20 30 26 37 6 6 67 83 136 171 136 174
126 168 189 113z m-8898 7 c68 -31 131 -94 166 -166 24 -49 28 -69 28 -142 -1
-105 -28 -163 -106 -234 -59 -53 -95 -72 -161 -85 -161 -29 -309 58 -372 219
-23 59 -23 161 0 220 35 90 132 179 224 207 59 18 160 9 221 -19z m555 -637
c50 -104 13 -220 -85 -270 -94 -48 -173 -29 -269 65 l-66 64 -25 -23 c-14 -12
-50 -46 -80 -74 -31 -29 -58 -53 -61 -53 -3 0 -29 24 -58 53 l-53 53 143 135
c78 74 183 173 233 222 l90 87 107 -111 c59 -62 115 -128 124 -148z m8033 167
c47 -40 88 -75 91 -78 3 -3 63 -55 135 -115 189 -160 175 -135 114 -206 -29
-33 -55 -57 -58 -52 -3 4 -37 35 -76 68 -38 33 -83 72 -100 86 -16 15 -68 59
-115 99 -47 39 -96 81 -110 93 -13 12 -37 31 -52 43 l-27 20 46 57 c26 31 51
57 56 57 5 0 48 -33 96 -72z m-68 -240 c79 -83 156 -163 170 -178 14 -15 47
-50 73 -78 l47 -50 -53 -51 c-29 -28 -56 -51 -59 -51 -4 0 -31 26 -62 58 -30
31 -87 91 -126 132 l-71 75 19 -50 c11 -27 43 -104 71 -170 29 -66 54 -127 56
-135 3 -9 -14 -33 -39 -58 l-45 -44 -138 67 c-77 37 -156 76 -178 87 -21 11
-37 15 -35 10 2 -5 56 -64 119 -131 63 -67 116 -125 118 -129 1 -4 -22 -31
-51 -60 l-53 -52 -135 142 c-73 78 -173 182 -221 232 l-87 91 62 63 c50 51 66
62 85 57 12 -3 111 -46 219 -95 108 -50 198 -88 200 -86 3 2 -2 17 -10 33 -7
15 -47 113 -87 216 l-73 188 59 59 c32 33 64 60 70 60 6 0 76 -68 155 -152z
m-7800 -85 c24 -20 64 -55 89 -77 25 -23 71 -63 102 -90 l57 -48 -36 -44 c-19
-24 -40 -44 -45 -44 -10 0 -119 90 -149 123 -9 9 -21 17 -26 17 -12 0 -83 -78
-83 -90 0 -4 30 -33 68 -65 37 -32 70 -63 74 -69 3 -6 -11 -30 -32 -54 l-39
-42 -73 65 c-40 36 -77 65 -81 65 -12 0 -86 -83 -87 -97 0 -6 38 -44 85 -84
93 -79 91 -72 30 -136 l-30 -31 -149 130 c-81 72 -144 133 -139 137 4 3 53 58
108 121 55 63 107 123 115 132 8 9 53 62 100 117 47 55 88 100 91 100 3 1 25
-16 50 -36z m429 -361 c144 -113 182 -162 183 -239 1 -123 -114 -222 -229
-196 l-42 10 -7 -66 c-4 -36 -9 -75 -11 -86 -2 -11 -6 -45 -10 -75 -3 -30 -8
-57 -10 -59 -2 -2 -35 22 -73 52 -67 55 -69 58 -61 89 5 18 11 53 14 78 3 25
8 54 10 65 16 88 16 93 2 104 -12 10 -28 -4 -91 -84 l-76 -95 -60 46 c-33 25
-59 49 -57 54 5 13 383 499 388 499 3 1 61 -43 130 -97z m6737 -44 c54 -68
116 -146 138 -175 22 -28 68 -87 102 -131 l62 -79 -61 -47 c-34 -25 -65 -43
-69 -39 -4 5 -71 89 -149 188 -153 196 -148 189 -204 259 l-39 48 34 27 c18
14 45 36 59 48 14 12 26 23 27 23 2 0 47 -55 100 -122z m-321 -265 c54 -76
122 -171 152 -211 l53 -72 52 38 c29 21 66 48 83 60 l31 21 32 -43 c17 -25 31
-48 31 -53 0 -4 -40 -36 -88 -70 -48 -34 -113 -80 -144 -102 l-57 -41 -38 56
c-21 31 -43 61 -48 67 -30 34 -287 399 -283 402 11 11 114 84 119 85 3 0 50
-62 105 -137z m-5900 -45 l75 -43 -5 -53 c-3 -30 -8 -57 -10 -60 -2 -4 -7 -25
-10 -47 -12 -75 -89 -510 -92 -513 -1 -2 -34 15 -73 37 l-70 41 7 38 c14 82
14 81 -83 138 -97 57 -116 62 -135 39 -7 -9 -26 -25 -41 -35 l-27 -20 -57 35
c-32 19 -62 36 -69 38 -6 3 9 23 34 45 61 54 474 402 478 402 1 0 37 -19 78
-42z m5543 -245 l-2 -248 46 -91 46 -91 -70 -35 -69 -34 -48 95 -48 95 -189
138 c-105 76 -189 141 -189 145 1 4 34 24 73 45 l70 37 98 -77 c54 -42 100
-79 103 -83 3 -4 12 -9 19 -11 14 -3 15 21 7 235 l-2 47 76 39 c41 22 76 40
78 40 2 1 2 -110 1 -246z m-5056 -14 c108 -49 202 -89 208 -89 6 0 8 -9 3 -22
-8 -28 -43 -98 -48 -98 -2 0 -34 14 -71 30 -37 17 -70 30 -74 30 -8 0 -34 -54
-147 -307 -37 -84 -72 -153 -78 -153 -6 0 -38 13 -72 28 -66 29 -65 27 -31
102 137 306 175 395 172 400 -2 4 -35 19 -72 35 -37 16 -70 30 -72 31 -2 2 7
28 20 59 19 47 26 54 43 49 12 -4 110 -46 219 -95z m4538 -91 l18 -46 -79 -32
-79 -32 20 -51 c11 -29 22 -56 23 -62 2 -5 8 -23 15 -40 63 -159 121 -313 121
-322 0 -6 -21 -18 -47 -27 -27 -10 -56 -21 -65 -27 -10 -5 -19 -9 -21 -9 -6 0
-43 91 -118 285 -40 105 -73 192 -75 193 -1 2 -38 -10 -81 -26 l-78 -31 -22
57 c-25 66 -30 58 -8 -14 8 -27 15 -51 15 -54 0 -3 -49 -19 -110 -35 -96 -26
-110 -33 -110 -51 0 -24 19 -85 30 -98 5 -4 49 4 98 18 50 14 93 26 96 26 5 0
36 -95 36 -111 0 -3 -15 -10 -32 -14 -18 -4 -38 -9 -44 -10 -70 -17 -122 -37
-120 -48 1 -6 10 -37 19 -68 l17 -57 97 29 c54 16 106 29 115 29 11 0 21 -16
32 -52 8 -29 12 -56 8 -59 -4 -4 -81 -27 -172 -53 -91 -26 -172 -49 -181 -52
-19 -5 -15 -15 -119 355 -39 139 -69 255 -66 258 5 5 93 32 191 58 138 37 171
48 183 57 27 23 467 186 471 174 2 -6 12 -32 22 -58z m-4201 -52 c33 -14 67
-31 75 -39 8 -8 46 -22 85 -32 l70 -17 1 -37 c0 -20 2 -58 4 -86 2 -27 6 -122
9 -209 4 -88 9 -162 12 -165 3 -3 9 1 14 9 57 98 268 395 280 394 24 -3 132
-33 138 -39 3 -3 -10 -27 -28 -53 -19 -26 -103 -146 -188 -267 -85 -121 -157
-224 -162 -228 -13 -14 -196 38 -197 56 -1 16 -14 232 -18 282 -2 22 -6 94
-10 160 -4 66 -9 127 -11 135 -1 8 -3 31 -4 50 -1 31 -5 25 -34 -50 -61 -158
-186 -465 -195 -478 -6 -10 -23 -7 -78 15 l-70 28 96 240 c134 333 143 355
147 355 3 0 31 -11 64 -24z m3251 -211 c1 -8 2 -18 3 -22 8 -32 17 -71 21 -88
2 -11 18 -81 35 -155 18 -74 33 -142 35 -150 2 -8 9 -37 15 -65 6 -27 13 -57
15 -65 2 -8 6 -27 10 -41 6 -26 4 -27 -65 -44 -59 -14 -74 -15 -80 -5 -5 8
-18 57 -30 109 -12 53 -32 141 -45 196 -13 55 -26 114 -29 130 -4 17 -15 62
-25 102 l-19 72 52 15 c50 14 83 23 99 25 4 0 8 -6 8 -14z m-2401 -40 c74 -14
159 -30 187 -36 l53 -10 -6 -37 c-4 -20 -8 -44 -9 -52 -2 -8 -4 -19 -4 -23 -1
-8 -75 -2 -111 8 -22 6 -82 17 -104 19 -13 1 -22 -8 -27 -27 -7 -26 -18 -97
-15 -97 2 0 169 -31 181 -33 17 -4 18 -10 11 -68 l-7 -56 -101 19 c-55 11
-102 17 -105 14 -8 -8 -30 -127 -24 -131 7 -3 149 -31 201 -38 14 -2 24 -8 23
-13 -1 -5 -4 -33 -8 -61 -4 -31 -11 -53 -18 -53 -27 1 -367 66 -372 72 -4 4
-2 30 4 60 6 29 13 69 16 88 5 29 70 380 80 430 2 8 4 23 4 33 1 21 -10 22
151 -8z m2065 -54 c67 -22 128 -73 161 -135 20 -37 12 -42 -79 -51 -65 -7 -70
-6 -97 20 -77 74 -220 33 -250 -73 -23 -85 3 -177 64 -226 68 -56 184 -33 229
45 11 19 24 29 39 28 13 -1 49 2 81 6 l58 7 -7 -28 c-29 -122 -116 -200 -250
-225 -100 -18 -191 3 -267 63 -123 98 -151 317 -57 453 74 108 242 159 375
116z m-1283 -53 c76 -34 128 -101 128 -164 0 -24 -1 -24 -77 -19 -55 4 -81 11
-88 22 -34 54 -83 74 -118 48 -22 -16 -30 -52 -17 -75 9 -16 27 -26 155 -86
106 -48 150 -123 127 -210 -17 -63 -38 -91 -91 -122 -41 -24 -55 -27 -131 -26
-92 2 -137 16 -189 60 -38 32 -57 66 -64 116 l-5 37 82 -5 c89 -7 87 -6 90
-28 4 -30 38 -56 73 -56 53 0 73 15 73 55 0 38 -30 65 -98 89 -144 51 -205
120 -194 221 7 72 52 127 127 153 48 17 168 12 217 -10z m631 -21 c123 -56
191 -166 189 -307 -1 -119 -71 -231 -178 -285 -53 -27 -69 -30 -149 -30 -115
0 -175 25 -244 101 -90 98 -111 239 -56 363 73 161 273 234 438 158z"/>
<path d="M4041 11902 l-59 -23 33 -82 c18 -45 39 -83 47 -85 18 -3 120 42 135
60 32 39 17 112 -30 142 -29 19 -54 17 -126 -12z"/>
<path d="M3335 11541 c-82 -38 -128 -116 -118 -198 10 -80 78 -179 142 -205
94 -38 219 11 257 101 46 109 -26 267 -140 311 -41 15 -96 12 -141 -9z"/>
<path d="M6028 11385 c-2 -2 -25 -6 -53 -9 -106 -14 -233 -62 -284 -109 -53
-49 -84 -119 -96 -217 -27 -216 -109 -320 -251 -320 -90 0 -141 41 -204 163
-50 98 -82 132 -158 169 -63 30 -74 32 -177 32 -127 0 -205 -17 -310 -69 -114
-55 -169 -121 -200 -242 -15 -58 -18 -84 -30 -238 -15 -191 -57 -267 -170
-310 -80 -31 -114 -19 -255 90 -145 112 -329 129 -499 47 -78 -38 -189 -150
-229 -232 -69 -142 -76 -240 -32 -416 32 -126 31 -194 -4 -269 -26 -56 -88
-121 -158 -166 l-47 -30 -68 30 c-201 88 -387 88 -522 1 -119 -77 -215 -254
-222 -410 -5 -105 25 -164 146 -289 51 -53 100 -110 109 -128 30 -59 19 -110
-41 -194 -60 -85 -136 -100 -288 -58 -160 44 -236 31 -322 -53 -85 -83 -174
-317 -176 -458 -1 -141 53 -211 252 -325 67 -38 138 -83 158 -99 35 -29 35
-30 31 -91 -6 -72 -29 -124 -72 -167 -43 -43 -93 -63 -243 -97 -208 -47 -263
-87 -296 -212 -39 -152 24 -457 117 -567 37 -43 97 -76 176 -97 234 -63 337
-196 262 -340 -28 -56 -64 -85 -167 -140 -210 -111 -266 -188 -268 -370 -4
-342 146 -541 421 -560 173 -13 199 -16 239 -36 52 -25 81 -61 125 -154 25
-55 33 -83 33 -132 0 -58 -3 -66 -54 -139 -84 -121 -110 -170 -131 -247 -86
-311 129 -616 445 -631 41 -2 107 4 160 15 117 23 223 19 290 -11 29 -13 75
-49 110 -85 120 -123 148 -227 100 -365 -32 -92 -41 -186 -25 -263 48 -233
308 -460 508 -442 72 6 120 30 217 110 44 36 104 77 134 92 116 58 291 19 353
-78 33 -51 46 -125 48 -274 3 -176 34 -260 124 -343 71 -64 148 -108 250 -143
70 -23 95 -27 186 -25 90 1 113 5 160 27 73 34 105 68 190 194 85 127 127 159
208 162 86 2 193 -40 251 -99 39 -39 58 -74 102 -188 52 -138 104 -203 196
-249 27 -12 55 -26 63 -31 39 -19 163 -42 230 -43 225 -1 379 125 444 363 33
119 52 157 90 177 48 25 135 42 199 38 78 -4 117 -36 182 -148 56 -96 82 -127
140 -166 60 -41 118 -60 193 -65 163 -10 328 59 450 188 94 100 115 187 92
382 -17 148 -13 164 63 218 111 79 225 100 319 58 24 -10 79 -49 122 -87 110
-93 148 -109 266 -109 79 0 106 5 162 27 139 54 269 167 335 291 34 64 38 80
40 153 2 75 -1 90 -39 185 -50 127 -54 189 -18 262 42 82 153 172 240 192 48
11 60 10 185 -17 131 -28 311 -32 390 -10 132 38 225 131 275 274 27 75 31
100 35 197 6 133 -20 214 -111 352 -55 84 -75 137 -75 203 -2 92 45 216 101
272 41 42 84 53 228 59 137 6 188 16 260 51 121 59 227 220 257 393 8 46 9
146 1 190 -23 124 -63 180 -184 251 -47 28 -100 62 -118 76 -68 51 -104 153
-100 278 4 135 38 172 176 190 84 12 138 25 182 45 205 91 311 471 197 707
-28 57 -94 130 -140 153 -21 11 -100 33 -175 50 -86 19 -150 38 -171 52 -49
34 -77 98 -76 176 2 138 45 204 178 273 139 72 183 118 206 216 46 199 -44
437 -215 567 -69 52 -110 67 -201 72 -104 5 -239 30 -292 54 -110 48 -166 131
-162 239 3 83 32 149 111 252 96 126 112 194 76 323 -44 158 -166 328 -276
384 -115 59 -253 61 -415 6 -95 -32 -112 -36 -177 -39 -94 -4 -199 65 -246
160 -23 49 -26 63 -21 123 3 37 17 101 31 142 39 117 48 159 48 226 1 119 -77
230 -230 328 -211 135 -328 136 -514 3 -116 -82 -180 -105 -276 -100 -107 6
-301 93 -334 152 -15 25 -21 49 -34 136 -30 206 -78 331 -160 417 -51 54 -99
83 -191 115 -67 22 -96 26 -198 27 -109 1 -125 -1 -175 -25 -75 -35 -119 -76
-206 -191 -88 -115 -114 -141 -172 -170 -58 -28 -154 -27 -247 2 -98 31 -124
61 -164 185 -53 162 -95 226 -191 287 -61 39 -135 59 -230 63 -43 1 -80 2 -82
0z m120 -189 c13 -3 32 -8 41 -11 19 -6 64 -97 101 -205 13 -36 36 -84 51
-106 53 -78 203 -158 373 -201 12 -3 65 -7 119 -9 160 -6 218 26 405 218 128
131 176 170 238 188 81 24 170 -24 252 -136 62 -84 83 -138 97 -255 20 -171
57 -223 240 -336 161 -100 293 -146 421 -145 87 0 148 23 256 94 112 74 154
89 237 89 127 -1 224 -78 226 -180 1 -25 -4 -78 -11 -117 -53 -305 -25 -471
100 -596 79 -79 238 -154 350 -165 59 -5 73 -2 169 35 126 50 154 56 234 55
128 -1 219 -97 228 -241 4 -72 -17 -135 -89 -261 -97 -168 -116 -268 -74 -390
30 -90 80 -163 179 -263 80 -80 181 -122 344 -144 28 -3 59 -8 70 -10 11 -2
34 -7 50 -9 96 -17 163 -59 198 -125 30 -55 39 -103 38 -195 0 -66 -2 -71 -33
-98 -18 -15 -74 -52 -124 -82 -165 -98 -216 -169 -218 -305 -4 -154 68 -371
150 -453 48 -48 84 -63 199 -87 155 -32 212 -65 246 -144 26 -62 35 -151 20
-198 -25 -75 -103 -133 -276 -203 -212 -87 -272 -143 -305 -284 -15 -62 -18
-192 -6 -266 16 -110 86 -238 174 -321 19 -18 63 -47 96 -64 111 -57 136 -90
138 -176 4 -185 -83 -281 -267 -299 -114 -11 -179 -22 -238 -41 -185 -61 -369
-354 -369 -589 1 -139 27 -205 116 -290 74 -71 86 -106 83 -235 -2 -71 -7 -95
-31 -144 -35 -72 -81 -120 -138 -146 -66 -30 -114 -25 -235 22 -100 39 -115
42 -203 43 -85 0 -102 -3 -160 -30 -83 -38 -208 -131 -286 -211 -99 -103 -134
-198 -128 -350 4 -101 10 -147 33 -254 27 -129 -20 -224 -140 -285 -113 -58
-179 -43 -286 62 -91 90 -176 123 -323 123 -168 1 -322 -48 -437 -139 -74 -58
-93 -105 -99 -238 -11 -270 -12 -280 -35 -333 -40 -93 -136 -137 -278 -127
-62 4 -68 7 -101 44 -19 22 -59 83 -88 134 -84 149 -154 189 -332 192 -258 4
-395 -42 -459 -154 -16 -29 -40 -93 -52 -143 -44 -183 -76 -236 -151 -256 -93
-26 -223 -3 -299 50 -17 13 -44 40 -59 62 -26 36 -40 68 -95 222 -24 66 -80
117 -190 171 -114 57 -226 86 -332 87 -125 1 -173 -26 -348 -199 -146 -145
-188 -173 -267 -181 -56 -5 -95 8 -160 55 -79 57 -96 111 -123 403 -17 179
-91 307 -215 370 -62 32 -187 61 -255 60 -60 -2 -248 -34 -292 -51 -23 -8 -23
-7 -23 61 0 89 -28 167 -73 201 -28 21 -42 24 -117 24 -123 -1 -128 -4 -129
-80 -1 -52 26 -109 80 -168 l44 -47 93 3 c60 1 92 -1 92 -8 0 -13 -64 -75
-101 -97 -58 -36 -156 -40 -218 -8 -101 51 -145 177 -115 325 34 164 41 213
37 262 -7 106 -57 203 -156 304 -59 60 -237 199 -255 199 -7 0 -12 4 -12 9 0
4 -27 20 -59 35 -63 28 -81 28 -174 1 -70 -21 -225 -14 -299 13 -119 42 -198
123 -212 217 -11 67 0 99 64 200 130 205 163 320 134 463 -40 194 -237 414
-399 446 -32 6 -82 12 -185 21 -36 3 -74 8 -85 10 -11 2 -25 4 -31 4 -13 1
-76 117 -94 175 -19 59 -20 125 -4 167 20 48 67 91 179 161 138 88 191 145
227 244 44 124 29 280 -39 396 -66 112 -149 169 -293 203 -87 20 -134 48 -154
90 -23 49 -47 166 -45 220 5 123 41 150 259 200 145 33 234 97 289 209 60 121
86 309 57 408 -22 78 -66 114 -201 168 -162 63 -214 107 -232 195 -17 76 24
212 70 237 25 13 138 12 206 -1 199 -40 368 41 483 231 50 81 78 158 85 232
10 107 -17 165 -136 292 -136 146 -161 293 -67 387 72 72 140 78 321 32 250
-65 363 -38 531 130 88 88 146 188 159 275 9 58 8 174 -3 270 -15 127 -4 211
38 295 48 96 64 110 124 110 44 0 75 -11 211 -77 88 -43 187 -84 220 -91 145
-34 264 4 389 122 85 81 115 150 150 336 51 273 70 328 126 379 22 20 51 38
66 42 42 11 137 -2 190 -25 67 -30 100 -64 140 -144 19 -37 50 -85 69 -106
106 -117 383 -130 559 -27 82 48 114 108 166 311 46 181 76 227 167 261 37 14
164 14 221 0z"/>
<path d="M5985 11010 c-78 -17 -119 -68 -117 -142 2 -90 72 -150 174 -151 77
0 140 55 158 137 10 45 9 51 -15 81 -41 54 -136 90 -200 75z"/>
<path d="M7451 10865 c-64 -21 -111 -92 -111 -167 0 -35 67 -95 117 -104 59
-11 123 -10 175 5 42 12 47 17 50 45 5 50 -10 117 -34 152 -42 62 -130 92
-197 69z"/>
<path d="M4664 10711 c-106 -48 -112 -191 -10 -241 89 -42 193 -12 228 68 20
44 27 138 11 152 -17 15 -108 40 -147 40 -23 0 -59 -9 -82 -19z"/>
<path d="M8825 10213 c-37 -9 -45 -24 -45 -81 0 -117 77 -198 186 -196 62 2
89 15 114 57 63 103 -25 215 -174 222 -33 1 -70 0 -81 -2z"/>
<path d="M5406 10189 c-178 -36 -336 -174 -386 -339 -52 -167 -20 -363 95
-584 l44 -86 -57 -29 c-31 -15 -115 -50 -187 -76 -326 -119 -578 -276 -775
-482 -80 -84 -92 -97 -185 -213 -33 -41 -70 -86 -83 -100 -67 -72 -114 -162
-114 -217 0 -38 14 -58 53 -78 24 -13 31 -12 75 10 27 13 81 53 119 88 104 95
341 250 513 337 238 119 424 165 663 163 227 -1 437 -66 645 -199 53 -34 202
-142 230 -169 7 -5 40 -32 75 -59 49 -38 82 -77 144 -169 196 -294 248 -418
292 -697 10 -61 10 -347 0 -440 -14 -136 -23 -206 -32 -275 -18 -132 -25 -196
-31 -282 -7 -115 -9 -113 89 -108 220 11 597 233 869 511 270 276 437 592 483
914 17 113 3 332 -29 465 -96 405 -408 760 -861 980 -214 105 -471 182 -729
220 -23 4 -50 8 -61 10 -11 2 -49 4 -84 4 -35 1 -61 4 -58 8 4 3 3 11 -2 17
-5 6 -5 36 -1 66 63 465 -179 813 -570 818 -52 0 -117 -4 -144 -9z"/>
<path d="M3525 10016 c-93 -42 -128 -142 -84 -239 24 -54 178 -64 252 -16 67
43 93 149 50 207 -41 57 -147 80 -218 48z"/>
<path d="M6940 9341 c-52 -16 -55 -19 -53 -49 2 -45 45 -97 103 -127 26 -13
106 -47 177 -76 255 -101 414 -203 593 -379 217 -214 336 -416 391 -670 38
-172 33 -459 -12 -651 -10 -46 -21 -94 -24 -107 -18 -75 -94 -243 -158 -347
-199 -321 -567 -589 -996 -725 -86 -27 -208 -65 -271 -84 -153 -47 -147 -43
-131 -107 23 -87 51 -125 109 -149 18 -7 45 -28 59 -46 14 -19 57 -57 97 -86
39 -29 88 -67 109 -85 20 -18 42 -33 48 -33 6 0 88 -33 183 -74 351 -151 519
-191 811 -191 151 0 219 7 330 34 400 97 705 343 889 716 107 218 146 397 148
669 1 112 -3 167 -18 286 -10 75 -10 78 -40 225 -19 95 -83 320 -119 425 -49
139 -50 126 2 157 26 15 89 43 142 63 133 51 154 63 217 128 61 62 131 193
159 297 23 85 27 227 9 305 -35 150 -140 291 -265 352 -118 59 -267 69 -414
29 -164 -45 -255 -116 -368 -287 -36 -56 -72 -106 -80 -112 -15 -13 -55 17
-196 146 -215 199 -353 289 -606 397 -348 148 -660 207 -825 156z"/>
<path d="M9866 9240 c-56 -36 -76 -76 -70 -140 5 -48 14 -104 17 -105 78 -40
171 -54 237 -36 32 9 49 59 44 125 -7 78 -42 129 -108 159 -61 28 -70 28 -120
-3z"/>
<path d="M2555 9046 c-78 -28 -105 -73 -105 -172 l0 -71 48 -18 c62 -24 107
-23 167 6 l50 24 0 97 c0 87 -2 100 -22 119 -25 26 -90 32 -138 15z"/>
<path d="M5047 8444 c-1 -1 -36 -4 -77 -8 -106 -8 -175 -22 -313 -62 -202 -59
-395 -157 -614 -312 -55 -39 -93 -72 -93 -82 0 -10 -25 -34 -57 -55 -81 -53
-154 -130 -256 -267 -78 -105 -148 -178 -169 -178 -4 0 -47 29 -94 65 -161
121 -267 157 -454 151 -189 -6 -312 -56 -431 -176 -162 -164 -200 -408 -97
-619 37 -77 140 -184 218 -228 100 -57 171 -75 347 -88 137 -11 138 -11 139
-81 1 -32 -10 -115 -22 -184 -36 -190 -39 -222 -39 -405 0 -167 8 -268 26
-353 5 -23 12 -59 15 -80 9 -56 63 -248 91 -322 32 -84 46 -121 74 -195 29
-77 63 -124 105 -141 42 -18 120 -18 127 -1 7 19 -5 230 -17 294 -2 10 -7 47
-11 83 -4 36 -9 74 -12 85 -2 11 -5 90 -7 175 -7 382 103 744 290 948 110 121
382 326 533 402 169 85 365 130 586 135 153 3 205 -3 420 -53 143 -34 165 -42
308 -113 227 -112 379 -219 593 -416 50 -46 112 -100 138 -120 l47 -36 35 34
c135 130 164 465 77 879 -31 148 -28 138 -58 243 -179 620 -602 1018 -1140
1073 -64 6 -203 12 -208 8z"/>
<path d="M10579 7968 c-68 -23 -66 -211 4 -286 73 -79 178 -67 219 25 37 83 5
202 -66 249 -28 18 -119 25 -157 12z"/>
<path d="M2015 7892 c-71 -15 -115 -65 -115 -129 0 -37 41 -122 72 -151 36
-32 94 -22 149 27 41 36 42 37 43 108 1 65 -1 74 -30 110 -31 38 -62 48 -119
35z"/>
<path d="M1758 6660 c-72 -79 -97 -178 -59 -237 40 -64 144 -67 206 -6 76 77
55 190 -45 241 -53 26 -79 27 -102 2z"/>
<path d="M10890 6637 c-51 -13 -90 -45 -111 -91 -47 -103 -2 -201 111 -241 39
-14 41 -14 76 17 46 41 74 97 74 150 0 41 -23 144 -34 155 -12 12 -84 19 -116
10z"/>
<path d="M1875 5302 c-16 -11 -43 -32 -59 -46 -28 -25 -28 -27 -21 -93 4 -38
8 -77 8 -87 1 -23 65 -53 131 -61 119 -14 164 68 131 240 -9 45 -25 55 -96 61
-53 4 -69 2 -94 -14z"/>
<path d="M10674 5230 c-37 -14 -103 -89 -114 -128 -13 -48 -5 -86 29 -146 38
-68 54 -77 113 -62 99 26 160 101 160 199 0 70 -47 118 -129 133 -15 3 -29 7
-32 8 -3 2 -16 0 -27 -4z"/>
<path d="M7452 5218 c-59 -9 -121 -37 -153 -71 -59 -61 -76 -165 -36 -229 29
-48 59 -70 153 -113 43 -20 89 -46 101 -57 44 -42 22 -96 -42 -104 -49 -6 -87
13 -95 46 -6 24 -8 25 -95 25 -99 0 -99 0 -82 -65 22 -85 100 -136 217 -143
177 -11 298 74 305 213 1 36 -29 102 -60 129 -19 16 -73 49 -120 72 -82 41
-125 76 -125 104 0 27 36 57 72 60 42 4 75 -16 80 -48 3 -21 7 -22 93 -22 l90
0 1 28 c2 47 -36 109 -86 139 -53 33 -142 47 -218 36z"/>
<path d="M4104 5212 l-31 -3 -23 -127 c-12 -70 -24 -136 -25 -147 -3 -18 -59
-335 -70 -397 l-5 -28 84 0 c97 0 86 -14 111 140 4 25 9 54 11 65 2 11 15 83
29 160 14 77 28 156 31 175 4 19 8 42 9 50 1 8 6 36 10 63 6 42 5 47 -11 48
-11 0 -35 1 -54 2 -19 1 -49 1 -66 -1z"/>
<path d="M4401 5210 c-20 -3 -35 -11 -37 -20 -1 -8 -5 -31 -9 -50 -3 -19 -8
-48 -10 -63 -2 -16 -6 -40 -10 -55 -9 -42 -14 -73 -21 -117 -3 -22 -19 -112
-35 -200 -16 -88 -29 -168 -29 -177 0 -16 11 -18 85 -18 81 0 85 1 86 23 0 12
2 29 4 37 2 8 6 31 9 50 18 103 29 140 39 140 184 8 236 20 301 74 97 79 122
238 49 318 -23 26 -72 48 -118 54 -56 7 -263 10 -304 4z m241 -139 c65 -5 60
-125 -7 -161 -23 -12 -131 -18 -141 -7 -5 5 11 132 21 164 3 10 46 11 127 4z"/>
<path d="M5043 5212 c-29 -2 -53 -6 -53 -10 0 -4 -6 -43 -14 -87 -24 -136 -26
-147 -47 -265 -11 -63 -22 -126 -25 -140 -2 -14 -7 -41 -10 -60 -3 -19 -10
-53 -15 -75 -15 -67 -17 -65 76 -65 80 0 85 1 89 23 3 12 12 63 20 112 9 50
18 106 21 125 4 19 11 59 15 89 5 29 11 55 13 58 4 3 31 -124 43 -197 2 -14 7
-36 10 -50 7 -30 13 -61 23 -115 l6 -40 71 -3 71 -3 33 63 c18 35 42 79 53 98
11 19 46 83 79 143 33 59 61 107 62 107 4 0 -11 -84 -19 -110 -2 -8 -7 -35
-10 -60 -4 -25 -15 -89 -24 -143 l-18 -98 86 3 85 3 7 40 c4 22 10 54 13 70 3
17 23 131 45 255 22 124 44 247 50 275 5 27 9 51 8 52 -3 2 -121 5 -168 4 -38
-1 -37 0 -100 -116 -12 -22 -40 -71 -64 -110 -23 -38 -45 -77 -49 -85 -4 -8
-12 -24 -19 -35 -7 -11 -28 -47 -47 -80 l-34 -60 -8 35 c-4 19 -9 44 -12 55
-6 30 -44 197 -68 302 l-22 91 -50 4 c-28 2 -75 2 -103 0z"/>
<path d="M5943 5212 c-38 -4 -31 18 -77 -252 -14 -80 -28 -158 -31 -175 -3
-16 -8 -41 -10 -55 -3 -14 -8 -43 -11 -65 -3 -22 -10 -58 -15 -80 -17 -77 -19
-75 75 -75 l83 0 16 88 c9 48 19 105 23 127 l6 40 86 1 c148 1 244 51 293 151
25 52 33 138 17 184 -13 39 -69 86 -117 99 -38 10 -272 18 -338 12z m244 -141
c57 -3 59 -111 3 -151 -27 -19 -141 -33 -155 -18 -5 5 5 86 20 155 5 22 3 22
132 14z"/>
<path d="M6737 5200 c-176 -55 -295 -219 -295 -406 0 -92 22 -149 78 -205 150
-150 452 -85 570 124 l21 37 -94 0 c-82 0 -96 -3 -112 -20 -58 -64 -168 -85
-229 -45 -63 42 -78 147 -35 245 38 86 103 129 197 130 49 0 56 -3 95 -43 l42
-43 82 1 c45 0 85 4 89 7 12 13 -29 111 -63 148 -18 21 -55 48 -81 61 -64 30
-184 35 -265 9z"/>
<path d="M7937 5212 c-19 -4 -21 -10 -41 -127 -9 -49 -18 -101 -20 -115 -3
-14 -14 -77 -25 -140 -26 -148 -30 -170 -36 -200 -3 -14 -8 -46 -11 -72 l-7
-48 196 0 195 0 11 50 c18 85 24 80 -100 80 l-110 0 4 28 c3 15 17 95 32 177
53 300 63 360 61 362 -3 4 -132 8 -149 5z"/>
<path d="M3760 4324 c-101 -36 -186 -67 -189 -69 -2 -3 100 -5 227 -5 128 0
232 2 232 4 0 17 -64 136 -73 135 -7 0 -95 -30 -197 -65z"/>
<path d="M8220 4185 c-25 -30 -99 -159 -95 -166 3 -3 28 -10 57 -14 29 -5 55
-9 58 -10 3 -1 25 -5 50 -9 25 -5 54 -10 65 -12 83 -18 119 -24 121 -21 2 2
-52 58 -120 125 -105 104 -125 120 -136 107z"/>
<path d="M4105 4067 c-83 -48 -374 -221 -372 -223 1 0 63 7 137 17 74 10 155
20 180 23 109 13 192 25 195 28 5 5 -108 167 -115 167 -3 -1 -14 -6 -25 -12z"/>
<path d="M2468 3959 c-41 -21 -60 -61 -61 -127 -3 -132 130 -238 235 -188 110
52 89 248 -34 312 -43 22 -100 24 -140 3z"/>
<path d="M7922 3782 c-39 -42 -70 -78 -68 -79 2 -2 230 -74 410 -129 44 -13
80 -23 82 -21 1 1 -48 46 -109 99 -62 53 -134 117 -162 143 -80 73 -73 74
-153 -13z"/>
<path d="M10001 3816 c-70 -101 -88 -180 -54 -237 22 -37 71 -53 138 -46 87 9
122 29 135 77 21 77 19 214 -3 236 -2 2 -45 7 -94 10 l-91 6 -31 -46z"/>
<path d="M4344 3722 c-22 -20 -90 -80 -149 -132 -60 -52 -123 -107 -139 -123
l-31 -27 30 6 c17 4 135 38 263 76 128 37 236 68 240 68 4 0 -11 16 -33 36
-22 20 -62 58 -90 85 l-50 48 -41 -37z"/>
<path d="M7620 3513 c-47 -36 -86 -68 -87 -72 -2 -3 119 -67 267 -142 149 -75
270 -135 270 -133 0 1 -6 9 -13 16 -7 7 -35 40 -62 73 -28 33 -57 67 -65 77
-8 9 -58 68 -110 132 -52 63 -99 115 -105 114 -5 0 -48 -29 -95 -65z"/>
<path d="M4600 3354 c-52 -69 -103 -135 -112 -147 -85 -109 -117 -152 -114
-155 5 -4 506 301 506 308 0 6 -173 120 -181 120 -2 0 -47 -57 -99 -126z"/>
<path d="M7295 3305 c-44 -24 -79 -46 -78 -50 1 -4 77 -66 169 -138 335 -265
321 -254 300 -222 -120 186 -300 455 -305 454 -3 0 -42 -20 -86 -44z"/>
<path d="M4981 3207 c-19 -45 -72 -169 -117 -275 -45 -106 -75 -187 -68 -181
8 6 111 108 229 227 l216 215 -78 32 c-43 17 -92 39 -110 48 -18 9 -33 17 -35
17 -2 0 -18 -37 -37 -83z"/>
<path d="M7028 3185 c-32 -13 -83 -31 -113 -40 -30 -8 -55 -20 -55 -25 0 -5
84 -109 186 -231 102 -123 192 -232 200 -243 24 -35 22 -14 -6 79 -114 371
-143 461 -148 472 -5 8 -23 5 -64 -12z"/>
<path d="M5311 2857 c-85 -379 -83 -356 -19 -267 30 41 118 162 196 267 78
106 143 198 144 204 2 8 -215 76 -252 79 -3 0 -34 -127 -69 -283z"/>
<path d="M6686 3085 c-49 -14 -60 -16 -159 -31 -35 -5 -47 -11 -43 -21 7 -17
317 -576 324 -583 2 -3 1 31 -3 75 -4 44 -9 100 -10 125 -4 64 -15 189 -20
230 -2 19 -7 77 -10 128 -5 59 -11 92 -19 91 -6 0 -33 -7 -60 -14z"/>
<path d="M5714 3033 c3 -16 8 -66 11 -113 3 -47 8 -101 10 -120 3 -19 7 -66
10 -105 9 -136 17 -230 21 -234 3 -3 40 74 84 177 6 12 14 32 20 45 61 137
148 342 147 343 -1 1 -38 5 -82 8 -44 3 -93 8 -110 10 -114 19 -116 19 -111
-11z"/>
<path d="M6359 3036 c-3 -3 -63 -7 -134 -9 -73 -2 -130 -8 -130 -13 0 -24 180
-612 187 -608 4 2 6 12 6 22 -1 14 8 79 28 192 2 14 7 41 10 60 3 19 16 104
30 189 21 133 22 186 3 167z"/>
<path d="M8906 2756 c-86 -32 -128 -90 -130 -179 -1 -57 17 -96 57 -121 77
-50 212 -3 260 90 38 75 28 158 -23 194 -38 27 -114 34 -164 16z"/>
<path d="M4818 2148 c-97 -12 -103 -20 -99 -117 1 -43 30 -99 63 -124 40 -30
114 -45 167 -35 80 14 100 26 108 67 18 95 -5 159 -72 191 -49 23 -92 28 -167
18z"/>
<path d="M7593 2073 c-35 -7 -71 -48 -79 -88 -4 -21 -1 -61 6 -92 14 -65 27
-72 122 -68 113 4 173 62 185 179 l5 52 -44 10 c-47 11 -158 15 -195 7z"/>
<path d="M6241 1874 c-94 -25 -132 -67 -117 -131 10 -40 76 -133 95 -134 9 0
31 -2 50 -3 48 -4 122 11 177 35 l47 21 -6 50 c-16 136 -109 197 -246 162z"/>
<path d="M6774 11283 c-23 -7 -60 -30 -83 -49 -39 -34 -41 -38 -36 -77 8 -54
27 -89 65 -121 56 -47 166 -30 256 39 l32 25 -14 52 c-7 29 -22 64 -32 78 -42
56 -117 78 -188 53z"/>
<path d="M5301 11249 c-45 -10 -81 -38 -109 -85 -27 -47 -24 -88 10 -134 68
-93 188 -85 279 18 44 50 45 64 10 132 -30 59 -108 87 -190 69z"/>
<path d="M8335 10851 c-77 -35 -91 -83 -50 -167 48 -99 163 -136 263 -85 89
46 94 141 11 219 -57 54 -150 67 -224 33z"/>
<path d="M3925 10736 c-64 -30 -103 -99 -91 -164 18 -104 21 -106 131 -105 76
0 124 16 158 51 35 37 45 67 43 132 -1 54 -2 56 -40 74 -50 24 -161 31 -201
12z"/>
<path d="M9593 9993 c-100 -56 -103 -167 -7 -252 47 -42 112 -64 160 -55 16 3
44 19 62 37 26 25 32 39 32 73 0 106 -101 214 -200 214 -8 0 -30 -8 -47 -17z"/>
<path d="M2752 9804 c-87 -45 -137 -183 -96 -269 32 -68 113 -70 211 -6 92 60
94 65 91 167 -3 88 -3 89 -33 103 -46 23 -134 25 -173 5z"/>
<path d="M10597 8766 c-12 -6 -33 -33 -46 -60 -68 -137 14 -296 154 -296 91 0
143 61 138 163 -4 71 -57 157 -112 179 -46 19 -110 25 -134 14z"/>
<path d="M2059 8666 c-2 -2 -25 -6 -51 -9 -87 -11 -152 -58 -173 -126 -8 -27
-8 -101 0 -140 7 -37 21 -43 115 -46 123 -4 175 91 146 262 -7 38 -26 69 -37
59z"/>
<path d="M1460 7327 c-46 -102 -54 -192 -21 -237 57 -79 225 -10 248 102 22
102 -42 177 -161 192 l-38 5 -28 -62z"/>
<path d="M11072 7310 c-75 -25 -100 -79 -76 -160 22 -74 93 -136 166 -144 77
-8 113 45 106 158 -3 40 -14 91 -25 116 l-20 46 -53 0 c-29 0 -73 -7 -98 -16z"/>
<path d="M1420 5928 c-38 -19 -73 -99 -74 -167 -1 -61 21 -102 67 -128 36 -20
100 -26 146 -13 59 16 83 71 79 179 l-3 76 -55 27 c-68 34 -126 43 -160 26z"/>
<path d="M11095 5872 c-68 -16 -101 -86 -91 -190 11 -115 20 -137 69 -156 85
-32 162 -13 191 49 27 56 27 125 1 251 -6 30 -115 60 -170 46z"/>
<path d="M1870 4480 c-60 -13 -90 -55 -90 -126 0 -28 5 -66 11 -85 39 -115
207 -162 266 -73 26 40 23 139 -6 190 -37 65 -119 108 -181 94z"/>
<path d="M10664 4435 c-71 -30 -128 -141 -129 -251 0 -51 4 -66 27 -96 53 -70
150 -74 219 -9 20 19 59 86 66 116 13 47 6 142 -13 174 -36 61 -112 91 -170
66z"/>
<path d="M2772 3085 c-45 -19 -66 -58 -65 -120 1 -50 26 -122 55 -155 52 -61
149 -86 212 -56 76 36 75 175 -2 267 -47 56 -144 87 -200 64z"/>
<path d="M9698 3049 c-15 -4 -29 -5 -31 -3 -15 16 -71 -103 -87 -184 -27 -147
90 -188 245 -86 87 58 87 56 86 122 0 68 -23 124 -57 142 -26 14 -117 20 -156
9z"/>
<path d="M3994 2175 c-27 -13 -64 -39 -80 -57 l-31 -33 19 -62 c22 -74 59
-115 125 -137 122 -42 209 0 218 103 4 51 -15 113 -47 152 -48 58 -129 71
-204 34z"/>
<path d="M8459 2120 c-47 -8 -97 -38 -123 -73 -29 -39 -31 -171 -2 -192 24
-18 113 -29 168 -20 136 21 212 129 152 220 -31 47 -121 77 -195 65z"/>
<path d="M7023 1637 c-77 -40 -94 -62 -92 -115 5 -110 42 -146 154 -145 40 1
82 4 93 7 11 4 37 34 57 68 33 56 35 64 24 91 -44 105 -142 144 -236 94z"/>
<path d="M5476 1625 c-47 -25 -65 -55 -66 -111 0 -97 82 -167 195 -166 143 1
211 97 142 199 -48 71 -200 115 -271 78z"/>
<path d="M9909 11062 c-24 -31 -50 -64 -56 -73 -11 -15 -5 -23 48 -64 46 -34
69 -45 88 -41 43 7 56 15 74 45 29 49 22 80 -28 127 -73 71 -75 71 -126 6z"/>
<path d="M2174 10675 c-17 -9 -48 -34 -69 -56 l-38 -41 67 -66 67 -67 54 57
c65 66 70 96 28 146 -34 38 -68 47 -109 27z"/>
<path d="M11020 9944 c-36 -25 -69 -49 -74 -54 -13 -13 71 -126 104 -140 59
-24 139 38 125 99 -5 23 -79 141 -88 141 -1 0 -31 -21 -67 -46z"/>
<path d="M11423 9311 c-34 -20 -65 -40 -69 -43 -9 -10 53 -115 79 -133 54 -38
147 12 147 79 0 29 -62 136 -78 135 -9 0 -45 -17 -79 -38z"/>
<path d="M1197 9279 c15 -18 50 -57 77 -86 27 -30 56 -63 63 -73 8 -11 17 -20
22 -20 8 0 95 149 90 155 -3 2 -151 32 -254 51 l-26 4 28 -31z"/>
<path d="M11645 8638 c-102 -37 -165 -117 -159 -201 7 -92 63 -168 138 -188
73 -20 178 9 238 64 95 89 76 244 -40 314 -41 25 -123 30 -177 11z"/>
<path d="M655 8043 c-21 -7 -50 -23 -62 -35 -50 -47 -104 -208 -70 -208 9 0
102 -25 208 -55 105 -31 193 -54 194 -53 11 12 35 121 35 160 0 51 -24 111
-57 140 -56 51 -177 76 -248 51z"/>
<path d="M11305 3914 c-44 -15 -70 -37 -101 -86 -50 -78 -54 -74 129 -165
l164 -82 26 52 c45 93 40 165 -16 225 -45 49 -144 76 -202 56z"/>
<path d="M1360 3693 c-128 -37 -187 -159 -129 -263 54 -95 161 -111 266 -38
73 50 99 127 68 201 -13 33 -68 97 -83 97 -4 0 -23 4 -42 8 -22 5 -52 3 -80
-5z"/>
<path d="M1745 3120 c-76 -17 -151 -95 -160 -166 -7 -51 32 -131 79 -162 134
-91 344 81 275 225 -42 89 -106 123 -194 103z"/>
<path d="M2187 2615 l-59 -55 29 -34 c31 -37 73 -66 96 -66 9 0 29 12 46 26
46 38 42 77 -11 137 l-43 46 -58 -54z"/>
<path d="M2914 1929 c-25 -33 -42 -64 -38 -68 96 -81 133 -91 179 -46 39 40
33 71 -26 127 -28 26 -55 48 -60 48 -4 0 -29 -27 -55 -61z"/>
<path d="M3375 1496 c-44 -41 -78 -76 -75 -78 3 -2 33 -20 67 -40 l62 -36 6
26 c3 15 8 40 11 56 3 16 11 55 19 88 10 43 10 58 2 58 -7 0 -48 -34 -92 -74z"/>
<path d="M6457 835 c-55 -19 -85 -52 -102 -110 -41 -141 46 -264 176 -251 130
13 192 152 126 286 -35 71 -120 103 -200 75z"/>
</g>
</svg>
